# xmcd
#
# Track frame offsets:
#	150
#	36374
#	59111
#	113056
#	149069
#	176557
#
# Disc length: 2965 seconds
#
# Revision: 1
# Processed by: cddbd v1.5.1PL0 Copyright (c) Steve Scherf et al.
# Submitted via: EasyCDDAExtractor 8.0.2.1
#
DISCID=5d0b9306
DTITLE=Deep Purple - Dusseldorf 03-09-05 Disc 2
DYEAR=2005
DGENRE=Hard Rock
TTITLE0=Highway Star
TTITLE1=Space Truckin'
TTITLE2=Smoke On The Water
TTITLE3=Lazy 
TTITLE4=Hush
TTITLE5=Black Night
EXTD=
EXTT0=
EXTT1=
EXTT2=
EXTT3=
EXTT4=
EXTT5=
PLAYORDER=
